<svg xmlns="http://www.w3.org/2000/svg" width="400" height="400">
  <g fill-rule="evenodd">
    <path fill="#fbfbfb" d="M191.8 16.9c-26.5 6.5-44.8 32.4-49.4 69.9-.9 7.2-.4 25.2.8 31.8 1 5 2.1 10.6 2.7 12.2l1 3.2a82.4 82.4 0 0 0 23.5 37.8c7 6 18.1 11 24.8 11h2v-60h-8v-5.6h8v-4.4h-10.8v-2.7l.2-2.7 5.3-.1 5.3-.1v-4.4H182v-5.6h15.2v-4.4h-10.8v-2.7l.2-2.7 5.3-.1 5.3-.1v-4.4h-8v-5.6h8V16.4h-1.9c-1 0-2.6.3-3.5.5M202 46.8v30.4h3.9l3.9.2.1 2.7.1 2.7h-8v4.4h5.3l5.3.2v5.2l-5.3.1-5.3.1v4.4h15.2v5.6H202v4.4h5.3l5.3.2v5.2l-5.3.1-5.3.1v4.4h3.9l3.9.2.1 2.7.1 2.7h-8l.1 30.1.1 30.1 2-.1c11.1-.6 24-8.5 33.6-20.5a90.4 90.4 0 0 0 11.6-20.2 111.7 111.7 0 0 0 7.9-42.8c0-5.8-.1-11-.3-11.3l-.6-3.9a103.3 103.3 0 0 0-3.6-17.6A82.6 82.6 0 0 0 226 25.3a48 48 0 0 0-22.4-8.9H202v30.4M55 137.5c-.2.3 0 .5 6.4 11.5l9.3 15.8a737.8 737.8 0 0 1 10 17.2 9003.3 9003.3 0 0 1 13.4 22.6l5.5 9.4a1213.6 1213.6 0 0 0 20.8 35.4 1000.6 1000.6 0 0 1 11.5 19.5 129.7 129.7 0 0 1 2.4 4.1 684.3 684.3 0 0 0 10.7 18.2 1372.1 1372.1 0 0 0 10 17 2684.6 2684.6 0 0 0 19.6 33.4l9.9 16.8c15 25.5 14.8 25.2 15.1 25.2.2 0 5.7-9 7-11.5l4.6-7.8a8336.8 8336.8 0 0 0 8.1-13.7l6.5-11a655.6 655.6 0 0 0 3.3-5.7 1194.4 1194.4 0 0 1 9.7-16.5l5.7-9.6a3381.2 3381.2 0 0 1 22.3-38 2734.2 2734.2 0 0 0 19.2-32.6 2058 2058 0 0 0 13.4-22.9 473.1 473.1 0 0 0 3.3-5.6 1538.5 1538.5 0 0 1 16.9-28.7 551 551 0 0 0 10-17 315.4 315.4 0 0 0 14.6-25.5c-.2-.2-15.9-.3-35-.3h-34.7l-.9 1.2a6 6 0 0 0-.8 1.4l-1.8 3-1.8 3-1.4 2.4-1.4 2.4-1.5 2.7a661.5 661.5 0 0 0-13.2 22.3 11652.3 11652.3 0 0 0-19.2 32.6 17640.3 17640.3 0 0 0-15.3 26 2308.4 2308.4 0 0 1-17.6 29.4c-.2 0-1.7-2.3-3.1-4.8l-4.7-8a521.5 521.5 0 0 1-10.4-17.8 346 346 0 0 1-9.2-15.5 100.4 100.4 0 0 1-2.1-3.5 6838.5 6838.5 0 0 0-30.9-52.6l-5.3-9-6.7-11.4-2.2-3.6-34.8-.1c-19.2 0-35 0-35.1.2"/>
    <path fill="#1c2c5c" d="M33.2.6c0 .3.2.6.4.6.3 0 .4 52.3.4 156 0 138.4 0 156 .6 156 .4 0 .6.4.6 1.4 0 .8.1 1.4.3 1.4.2 0 .4.7.4 1.5s.3 1.7.5 1.9c.2.2.4.7.4 1s.2.8.4.8.4.4.4 1c0 .5.3 1.2.6 1.5l.6 1.2c0 .4.2.8.4.9.2.1.4.6.4 1 0 .5.2.8.4.8s.4.3.4.6c0 .7 1.3 3 1.7 3 .2 0 .3.3.3.6s.2.6.4.6.4.4.4.8.2.8.4.8.4.2.4.5.4 1 1 1.6c.5.6 1 1.3 1 1.7 0 .3.2.6.4.6s.4.2.4.4c0 .6 1 1.6 1.6 1.6.2 0 .4.3.4.7 0 .4.5 1.3 1.2 2s1.1 1.3 1 1.3c-.1 0 0 .3.3.6s.6.4.8.3c.2 0 .3.1.3.5s1.2 1.8 2.6 3.2c1.4 1.4 2.6 2.8 2.6 3a27 27 0 0 1 4.3 4c2 1.8 4 3.7 4.6 4 .6.3 1 .7.9.9-.2.1.1.3.6.3.4 0 .8.2.8.5 0 .5 2 2.3 2.7 2.3.6 0 1.7 1 1.7 1.4 0 .4 1.3 1.4 1.9 1.4.3 0 1 .5 1.7 1.2.7.6 1.6 1.3 2 1.4.5.1.8.4.8.6 0 .2.4.4.8.4s.8.2.8.4.3.4.6.4.6.3.7.6c.2.3.6.6.9.6.3 0 .6.2.6.4s.3.4.6.4.6.2.6.4.4.4 1 .4 1 .2 1 .4.4.4.8.4.8.3.8.6.4.6.8.6.8.2.8.4.4.4.9.4 1.1.3 1.5.7c.7.8 4.7 2.9 5.5 2.9.3 0 .5.2.5.4s.5.4 1.2.4c.6 0 1.2.3 1.3.6.2.3.6.6 1 .6.5 0 .9.2.9.4s.4.4 1 .4c.5 0 1 .2 1 .4.1.2.7.4 1.3.5.6 0 1.1.2 1.1.4s.4.3 1 .3 1 .2 1 .6.4.6 1 .6c.5 0 1 .2 1 .4s.5.4 1.2.4 1.2.2 1.2.4.4.4.8.4c.5 0 1.1.3 1.5.6.3.3 1 .6 1.5.6s1 .2 1.2.4c.1.2.8.4 1.4.4.7 0 1.2.2 1.2.4s.5.4 1.2.4c.6 0 1.3.2 1.4.4.1.2.7.4 1.3.4s1.2.3 1.6.6c.3.3 1 .6 1.7.6s1.3.2 1.4.4c.1.2.9.4 1.6.4.8 0 1.4.2 1.4.4s.8.4 1.8.4 1.8.2 1.8.4.8.4 1.8.4c1.1 0 1.8.2 2 .6.1.4.7.6 2 .6 1 0 1.8.2 1.8.4s.8.4 1.8.4 1.9.2 2 .4c.1.2 1.3.4 2.6.4 1.4 0 2.4.2 2.5.5 0 .2 1.2.5 2.5.6 1.3 0 2.8.4 3.4.6 1.4.7 80.2.7 80.9 0 .2-.3 1.5-.5 2.8-.5 1.5 0 2.4-.2 2.8-.6.4-.4 1.4-.6 2.7-.6 1 0 2-.2 2-.4s1-.4 2.2-.4c1.2 0 2.2-.2 2.2-.4s.8-.4 1.8-.4c1.3 0 1.9-.2 2-.6.2-.4.8-.6 2-.6 1 0 1.8-.2 1.8-.4s.7-.4 1.6-.4c.8 0 1.7-.2 1.8-.4.1-.2.9-.4 1.6-.4.7 0 1.5-.2 1.6-.4.1-.2.7-.4 1.2-.4s1.2-.3 1.5-.6c.4-.3 1.2-.6 1.9-.6.6 0 1.2-.2 1.2-.4s.6-.4 1.4-.4c.8 0 1.4-.2 1.4-.4s.3-.4.7-.4c.8 0 3.1-.8 4.4-1.5.5-.3 1.1-.5 1.5-.5.3 0 .6-.2.6-.4s.6-.4 1.4-.4c.8 0 1.4-.2 1.4-.4s.4-.4 1-.4 1-.2 1-.6c0-.4.4-.6 1.2-.6.6 0 1.3-.2 1.4-.4.1-.2.6-.4 1-.4.5 0 .8-.2.8-.4s.4-.4.8-.4c1 0 2.5-.8 3-1.5.1-.3.6-.5 1-.5s.8-.1.8-.3c0-.2.5-.4 1-.4.7 0 1.3-.3 1.4-.4.1-.2 1-.7 1.9-1.1 1-.4 1.6-.9 1.5-1-.2-.3.3-.4 1-.4s1.2-.2 1.2-.4.3-.4.6-.4.6-.2.6-.4.4-.4.8-.4.8-.3.8-.6.3-.6.7-.6c.4 0 1.1-.4 1.6-.8s1-.8 1.3-.8c.6 0 2.4-1.2 3.2-2 .4-.5 1-.8 1.5-.8.4 0 1-.4 1.3-.8.3-.4.8-.8 1-.8.3 0 1-.4 1.6-1s1.2-1 1.6-1c.3 0 .6-.2.6-.4s.3-.4.6-.4.6-.2.6-.4c0-.7 1-1.6 1.8-1.6.3 0 .6-.2.6-.4s.2-.4.4-.4c.5 0 1.6-1 1.6-1.4 0-.5 1.2-1.4 1.8-1.4.4 0 1.8-1.2 3.2-2.6 1.4-1.5 2.6-2.5 2.6-2.4 0 .1.3 0 .6-.3s.5-.6.4-.7c-.1-.2 1.7-2 1.9-1.8 0 0 .5-.3 1-.9l.7-.9 2.4-2.6c1.5-1.5 2.6-2.9 2.6-3.4 0-.4.2-.8.4-.8s.9-.4 1.4-1c.6-.5 1-1.2 1-1.4 0-.2.2-.4.4-.4s.4-.4.4-.8.2-.8.5-.8c.7 0 2-2.2 1.6-2.6-.2-.2 0-.2.2 0 .3.1.5 0 .5-.4 0-.3.2-.6.4-.6s.5-.4.6-1 .4-1 .6-1c.1 0 .5-.6.8-1.4.3-.8.7-1.4.9-1.4.2 0 .3-.4.3-.8s.2-.8.4-.8.5-.4.6-1 .4-1 .6-1c.2 0 .4-.4.4-.8s.2-.8.4-.8.4-.4.4-1 .2-1 .4-1 .4-.4.4-.8c0-.5.3-1.1.6-1.5.3-.3.6-.9.6-1.3 0-.5.2-.8.4-.8s.4-.6.4-1.4c0-.8.2-1.4.4-1.4s.4-.7.4-1.6c0-1 .2-1.5.4-1.4.2.2.4-.6.4-2 0-1.5.2-2.2.6-2.3.5-.2.6-17.8.6-154.3 0-102.4.1-154 .4-154 .2 0 .4-.3.4-.6C366.8.1 348 0 200 0S33.2 0 33.2.6m164 46.2v30.4h-8v5.6h8v4.4h-5.3l-5.3.2-.1 2.7-.1 2.7h10.8v4.4H182v5.6h15.2v4.4h-5.3l-5.3.2-.1 2.7-.1 2.7h10.8v4.4h-8v5.6h8v60h-2a46 46 0 0 1-24.8-11 82.4 82.4 0 0 1-23.6-37.8l-1-3.2c-.5-1.6-1.7-7.2-2.6-12.2-1.2-6.6-1.7-24.6-.8-31.8 3.9-31.7 18.1-56 38.7-66.2 4.4-2.1 11-4 14.2-4.1l1.9-.1v30.4m9.9-30a55.8 55.8 0 0 1 34.8 25.8 106 106 0 0 1 12 28.2 103.3 103.3 0 0 1 3.4 28.6 111.7 111.7 0 0 1-8.9 45.3c0 1.4-7 13.2-10.6 17.7-9.6 12-22.5 19.9-33.6 20.5l-2 .1-.1-30.1-.1-30.1h8v-2.7l-.2-2.7-3.9-.1-3.9-.1v-4.4h5.3l5.3-.2v-5.2l-5.3-.1-5.3-.1v-4.4h15.2v-5.6H202v-4.4h5.3l5.3-.2v-5.2l-5.3-.1-5.3-.1v-4.4h8v-2.7l-.2-2.7-3.9-.1-3.9-.1V16.4h1.6c.9 0 2.4.2 3.5.5M127 141l6.8 11.4 5.3 9a7557.1 7557.1 0 0 1 30.9 52.6 100.4 100.4 0 0 0 3.5 5.8 346 346 0 0 0 9.2 15.6 521.5 521.5 0 0 0 13.7 23.4c1.4 2.5 2.9 4.8 3.1 4.8.3 0 .6-.6 5.8-9.4a12479.4 12479.4 0 0 1 35.5-60.4 6294.2 6294.2 0 0 0 30.1-51l1.8-3 .8-1.4.9-1.2h34.7c19.1 0 34.8.1 35 .3.1.3-3.5 6.7-14.6 25.5a1311.8 1311.8 0 0 0-13.5 23 1228.3 1228.3 0 0 1-13.4 22.7 473.1 473.1 0 0 1-3.3 5.6 3194.4 3194.4 0 0 0-5.4 9.3 2058 2058 0 0 1-8 13.6 317 317 0 0 0-4.8 8.2l-5.7 9.6a2734.2 2734.2 0 0 1-8.7 14.8 509.2 509.2 0 0 0-7 12 3381.2 3381.2 0 0 0-26.6 45.2 1194.4 1194.4 0 0 0-4 7l-3.4 5.5a4494 4494 0 0 0-6.5 11.1 8336.8 8336.8 0 0 1-19.7 33c-.3 0-.1.3-15.1-25.2l-9.9-16.8a1252.8 1252.8 0 0 1-12.8-21.8 2684.6 2684.6 0 0 1-16.8-28.6 1473.8 1473.8 0 0 0-10.7-18.2 129.7 129.7 0 0 0-2.4-4l-1.1-2-.8-1.4A1213.6 1213.6 0 0 1 99.6 214l-5.5-9.4A9003.3 9003.3 0 0 0 80.8 182a529.8 529.8 0 0 1-10-17.2L61.3 149c-6.5-11-6.6-11.2-6.3-11.5.1-.2 16-.3 35-.2l34.9.1 2.2 3.6"/>
  </g>
</svg>
