<svg xmlns="http://www.w3.org/2000/svg" width="80" height="80"><g fill="none" fill-rule="evenodd"><path fill="#002B5C" d="M42.478 59.778c-.497-.05-1.254.026-1.254.026.655-.434.837-.478.875-.481-1.217.017-1.886.268-1.886.268a7.83 7.83 0 011.14-.84l-8.128.002.21-.471s-.732.46-1.427.46l-14.66.003 4.072-5.836-1.502.304 1.412-1.542-2.39.586s2.772-3.319 6.096-3.282c.738.007 6.262 0 8.45 0 2.854 0 2.992.649 2.997.739-.007-.682-.751-.744-.751-.744h11.974l.8.005H62.87l9.862 1.139-2.625 8.633-3.787.001-.757 1.025s.088.217-.13 1.347c-.217 1.13-1.561 2.28-3.299 2.275-2.688-.006-13.773 0-17.592 0-3.298 0-2.413-2.766-2.063-3.617"/><path fill="#FFD200" d="M47.28 58.292l-.569 1.655c-.177-.237-.433-.44-.807-.44-.493-.002-1.037.372-1.213.845-.18.479.11.848.605.85.38 0 .739-.155 1.097-.402l-.655 1.626c-.311.12-.945.17-1.24.17-1.296-.003-1.949-.968-1.486-2.208a3.31 3.31 0 01.667-1.066c-.476.017-1.099.075-1.099.075.827-.49 1.292-.565 1.47-.573-1.211-.028-1.857.17-1.857.17 1.635-.79 3.065-1.112 4.466-.855.221.03.432.08.622.153m-3.231.532l.084.002s-.028-.004-.084-.002"/><path fill="#002B5C" d="M6.312 24.842s34.033-23.505 59.334 8.896c0 0 14.038 8.977 7.835 21.057l-1.306-3.755s-5.713-.082-12.977-2.938c-7.263-2.856-13.385-.49-13.385-.49s.164-1.632 1.551-2.856c0 0-6.53 2.448-7.345 4.407 0 0 .326-3.428 1.877-5.223 0 0-3.755.897-7.1 3.183 0 0 .734-3.591 4.162-5.795 0 0-7.427.081-14.854 4.08 0 0 5.305-9.874 13.548-13.14 0 0-6.774-2.203-15.915-1.06 0 0 4.326-4.897 11.182-5.795 0 0-15.1-3.02-26.607-.571"/><path fill="#E31937" d="M24.9 50.006h.261l.514.003 2.613.002.32 4.773 1.276-4.152c.025-.135.032-.28-.018-.39-.104-.23-.352-.243-.352-.243l1.35.013 2.117.001c2.382 0 3.986.902 3.648 3.105l.76-2.467c.026-.137.035-.292-.016-.404a.432.432 0 00-.352-.244l1.35.012 4.495.001-.63 2.047-2.406-.002-.22.716h2.197l-.597 1.948-2.199-.002-.226.735 2.49.002-.63 2.045-5.364-.002.907-2.95c-.865 1.825-2.745 2.949-4.801 2.948H27.77l-2.004-.002.026-.933-2.156-.001-.516.932h-3.023l3.426-5.095.013-.026a2.09 2.09 0 00.213-.633c-.76-.047-1.847.353-1.847.353a7.821 7.821 0 011.644-.92c-.614-.439-2.36.203-2.36.203 1.154-.836 2.438-1.373 3.712-1.373zm8.701 3.851c.325-1.053-.173-1.5-1.216-1.5h-.177l-.892 2.9h.177c.95 0 1.807-.417 2.108-1.4zm-8.907.93h1.146l.073-1.32c.014-.318.063-.646.109-.964l-1.328 2.284zm23.523-2.29l.06-.121c.123-.253.19-.461.212-.633-.76-.047-1.846.353-1.846.353a7.808 7.808 0 011.644-.92c-.615-.439-2.361.203-2.361.203 1.338-.985 2.644-1.373 4.457-1.373 1.275 0 .668.003.668.003h1.996l.42 6.41 1.966-6.397h2.81l1.282.001 2.103.002c2.223 0 3.769.786 3.69 2.683l.528-1.717.087-.27c.036-.152.056-.334-.002-.463-.105-.23-.353-.243-.353-.243l1.349.012 4.5.002-.628 2.046-2.407-.001-.22.714 2.198.002-.598 1.947h-2.198l-.226.733 2.49.002-.63 2.045-5.366-.002.784-2.558c-.936 1.594-2.689 2.558-4.593 2.557l-3.616-.003 2.143-6.966a.571.571 0 00-.033-.29.402.402 0 00-.243-.219l-2.3 7.477-2.445-.002h-.409l-2.612-.002.026-.933-2.156-.001-.517.933h-3.02l-4.05-.003 2.304-7.489 2.855.001-1.564 5.086h2.07l1.751-2.606zm14.031 1.372c.324-1.053-.175-1.5-1.216-1.5l-.161-.003-.908 2.902h.177c.948.001 1.806-.416 2.108-1.399zm-12.802.929h1.145l.072-1.321c.015-.317.064-.646.109-.964l-1.326 2.285z"/><path fill="#004B8D" d="M15.716 22.092S45.275 8.65 64.21 35.102c0 0 11.562 8.167 9.178 15.466 0 0-.289-1.734-.867-3.253-.578-1.517-9.25-8.744-17.996-10.262l1.373 4.191.29-2.529s4.336 5.782 14.67 9.83c0 0-.795 1.444-7.66-.94-6.866-2.385-9.54-3.397-12.72-2.891 0 0 2.312-1.88 5.781-1.374 0 0-4.046-2.023-11.997.723 0 0 2.096-2.24 4.626-2.53 0 0-3.541-.939-10.48 2.385 0 0 3.903-3.83 7.517-4.336 0 0-8.24-1.445-16.84 1.807 0 0 3.18-5.854 14.744-9.973 0 0-7.733-2.458-17.562-2.024 0 0 6.287-3.758 13.514-3.324 0 0-8.094-5.059-24.066-3.976"/><path fill="#004B8D" d="M49.193 23.532c.222.078-5.062-3.425-12.06-3.945-6.996-.521-15.036.819-15.036.819s13.995-1.489 27.096 3.126"/><path fill="#33619E" d="M72.79 45.491s-2.828-4.838-6.029-7.444l-3.202-2.605.373 1.861s5.36 4.02 8.858 8.188M49.193 23.532c.222.078-5.062-3.425-12.06-3.945-6.996-.521-15.036.819-15.036.819s13.995-1.489 27.096 3.126M33.68 27.658c.502-.188 5.742-2.504 11.829.394 0 0-5.348-1.114-11.83-.394"/><path fill="#FFD200" d="M55.759 29.7c-.067.024-2.475 1.012-1.518 2.925.838 1.676 3.977 1.241 4.125-.929"/><path fill="#002B5C" d="M56.541 30.192s-3.861-.694-6.226-.716c0 0 2.94.824 3.718 2.051 0 0 .209-1.877 2.508-1.335m2.278 1.624s.465 1.414-.488 2.108c-.955.695-3.98 1.341-4.523-1.76 0 0 1.013 2.124 3.27 1.278 2.255-.845.064-3.2.064-3.2l1.677 1.574z"/><path fill="#002B5C" d="M57.398 30.835l-1.117-1.34-.91 1.302s-.456.585-.066 1.106c.39.521.78.846 1.627.456.846-.391.466-1.524.466-1.524"/><path fill="#E31937" d="M56.097 29.924c-.05.016-1.758.716-1.09 2.098.666 1.383 2.733.88 2.96-.666.228-1.546-.34-.433-.34-.433s-.589 1.942-1.766 1.216c-1.046-.645-.025-1.988.837-1.76.863.229-.601-.455-.601-.455"/><path fill="#002B5C" d="M60.604 34.72s.466-5.752-10.549-7.546c0 0 8.17 3.792 10.549 7.547"/><path fill="#FFD200" d="M49.227 59.75c-.12.323-.407.363-.678.363h-.115l.276-.739h.126c.283.001.516.042.39.376m1.635-.047c.409-1.096-.304-1.514-1.328-1.516l-1.688-.004-.548-.006s.097-.002.134.096c.025.065.005.168-.017.242l-1.498 4.015 1.615.004.52-1.395h.03l.203 1.396 1.903.005-.46-1.414c-.043-.128-.12-.197-.18-.261l.012-.034c.688-.195 1.057-.471 1.302-1.128"/><path fill="#FFD200" d="M53.283 59.558c.524.001.706.388.534.85-.186.495-.662.835-1.162.834-.5-.001-.723-.343-.538-.838.173-.462.642-.847 1.166-.846m.534-1.43c-1.38-.003-2.844.882-3.354 2.249-.521 1.395.293 2.233 1.68 2.237 1.385.003 2.824-.83 3.345-2.226.51-1.367-.292-2.256-1.671-2.26"/><path fill="#FFD200" d="M55.485 58.2l-.032 4.352 1.404.003 1.072-1.709c.135-.213.251-.428.353-.653h.054l-.364 2.365 1.44.003 3.237-4.357-1.716-.008-1.153 1.844a7.563 7.563 0 00-.4.767h-.037l.352-2.606-1.26-.002-1.16 1.8a7.43 7.43 0 00-.439.802H56.8l.396-2.602-1.71.002z"/><path fill="#FFD200" d="M60.445 62.235c.42.25 1.026.4 1.599.401.982.003 2.162-.508 2.55-1.546.275-.738-.098-1.096-.74-1.248l-.345-.082c-.115-.03-.311-.053-.251-.214.067-.179.297-.23.441-.23.355.001.621.146.836.33l.861-1.11c-.349-.262-.78-.383-1.298-.384-.988-.003-2.186.571-2.571 1.603-.254.68.153 1.046.757 1.156l.31.06c.14.028.35.046.277.242-.073.196-.356.26-.519.259-.38-.001-.668-.18-.881-.4l-.061-.064-.965 1.227zM50.422 52.052s-1.396 2.418-1.531 2.642c-.096.16-.217.652.413.652h1.602l-.32-.434h-1.382l1.48-2.512-.262-.348zm10.017-.005l.298.264-.935 3.057s.384.12 1.605-.205c0 0-2.384 1.239-1.977-.055.39-1.235.471-1.5 1.009-3.06m7.521-.532s-.35 1.161-.396 1.325c-.033.111-.139.43.344.43h1.794l-.297 1.03.281.338.522-1.725h-2.204l.294-.967-.338-.43zm-.84 2.709l-.382 1.298c-.032.112-.138.43.345.43h2.08l-.297 1.03.26.339.522-1.725h-2.47l.281-.941-.339-.431zm-16.686-4.067h2.431l.443 6.618c.014.135.129.26.273.275 0 0-.714.203-.773-.58-.057-.782-.347-5.908-.347-5.908l-2.281.003.254-.408zm-7.247.001l.196.404h1.745s-1.378 4.338-1.443 4.534c-.066.195.094.608.506.608h2.347l-.268-.42h-2.108l1.58-5.126h-2.555z"/><path fill="#FFE694" d="M47.524 58.234l.133.193s1.524.003 2.19.002c.574 0 1.154.592.811 1.45 0 0 .397-.58.192-1.063-.193-.457-.627-.548-.99-.564-.432-.018-2.336-.018-2.336-.018m-.837 1.525l-.179-.334.343-.953s-.594-.169-1.616-.085c-1.173.097-2.373.408-2.373.408s2.183-1.111 4.308-.45l-.483 1.414zm-2.055.052s-.475.67-.297 1.178c.178.506.988.633 1.56.368l-.443 1.048.242-.06.536-1.365s-.47.35-1.004.296c-.535-.055-.909-.492-.54-1.109l-.054-.356z"/><path fill="#FFE694" d="M43.727 59.002c-.087 0-.592.231-.592.231s.688-.106 1.064-.106"/><path fill="#FFD200" d="M48.62 51.237c-.147 0-.914.42-.914.42s1.063-.248 1.706-.248"/><path fill="#FFE694" d="M48.002 61.038l-.11-.3-.554 1.498.15.211zm1.271-.258l.533 1.511.3.19s-.437-1.32-.474-1.407c-.071-.163-.359-.293-.359-.293m-.756-1.704s-.352.893-.352 1.043c0 .15.013.241.37.24a.692.692 0 00.483-.205s-.493.06-.663 0l.296-.87-.134-.208zm3.794.494s-.724.536-.608 1.332c.116.797.956.652 1.71.362 0 0-.61.044-.812.03-.203-.015-.786-.1-.594-.87.044-.173.268-.434.268-.434l.036-.42zm-.514-.745s.593-.492 1.36-.593c.768-.102 1.927-.117 2.404.854l-.26.058s-.478-.768-1.752-.768c-1.275 0-1.752.45-1.752.45m3.73-.59l.078.19 1.277.002s-.363 2.391-.366 2.526c-.01.342.346-.104.346-.104s-.16.126-.11-.146c.019-.107.382-2.471.382-2.471l-1.607.003zm2.932 0l.068.19.853.002s-.317 2.391-.32 2.526c-.01.342.345-.104.345-.104s-.159.126-.11-.146c.019-.107.337-2.471.337-2.471l-1.173.003zm-1.624 4.253l-.121-.226 1.438-2.319.109.195zm2.548-.015l-.094-.148 2.263-3.053-.027.336zm1.577-4.238l1.617-.002s-.573.665-.452.677a.623.623 0 00.277-.06s-.588.348-.48.039c.107-.309.29-.47.29-.47l-1.135.003-.117-.187zm1.6.488s.3-.326 1.066-.474c.674-.131 1.42.102 1.657.311l-.733.96-.076-.257.457-.608s-.895-.536-2.372.068m.514.714s-.303.286.022.43c.309.136.568.202.904.294.529.146.587.892-.258 1.791 0 0 .609-.252.825-1.032.176-.634-.293-.901-.706-.999-.28-.066-.765-.147-.68-.337l-.107-.147z"/><path fill="#FFD200" d="M55.512 50.158h2.605l-2.232 7.158-.374-.322 1.968-6.432-1.818-.004z"/><path fill="#FFF" d="M56.549 30.91s-.673.271-.696.68c0 0-.353-.556.24-1.004l.456.325z"/><path fill="#FFD200" d="M47.005 50.908s1.182-.75 3.43-.75l.304.41s-2.496-.05-3.734.34m-21.391 1.144s-1.396 2.418-1.531 2.642c-.096.16-.217.652.413.652h1.603l-.321-.434h-1.382l1.48-2.512-.262-.348zm.012-1.894h2.43s.44 6.575.444 6.618c.014.135.128.26.273.275 0 0-.714.203-.772-.58-.058-.782-.348-5.908-.348-5.908l-2.28.003.253-.408zm-1.813 1.079c-.148 0-.915.42-.915.42s1.063-.248 1.707-.248"/><path fill="#FFD200" d="M22.197 50.908s1.182-.75 3.43-.75l.305.41s-2.497-.05-3.735.34m43.858-.752c.063.068.123.191.092.403h4.577l-.321 1 .307.418.562-1.821h-5.217zm-26.699 1.36s-.35 1.161-.397 1.325c-.032.111-.138.43.345.43h1.794L40.8 54.3l.281.338.521-1.725H39.4l.295-.967-.338-.43zm-.84 2.709l-.382 1.298c-.033.112-.138.43.345.43h2.079l-.297 1.03.26.339.522-1.725h-2.47l.281-.941-.338-.431zm-1.066-4.07c.064.07.123.192.093.404h4.576l-.32 1 .307.418.56-1.821H37.45zm27.501 1.412c-.563-1.134-1.91-1.408-3.087-1.408h-3.268c.065.065.13.188.101.403h3.431c1.52 0 3.087.941 2.778 3.368 0 0 .487-1.474.045-2.363m-33.152.458l.299.264-.935 3.057s.384.119 1.605-.205c0 0-2.384 1.238-1.977-.056.39-1.235.471-1.499 1.008-3.06m4.513-.48c-.563-1.135-1.911-1.41-3.087-1.41h-3.269c.066.067.13.189.102.405h3.43c1.521 0 3.088.94 2.779 3.367 0 0 .486-1.474.045-2.363"/><path d="M0 0h80v80H0z"/></g></svg>