<svg xmlns="http://www.w3.org/2000/svg" width="80" height="80"><g fill="none" fill-rule="evenodd"><path d="M0 0h80v80H0z"/><path fill="#FFF" d="M59.922 34.9a126.67 126.67 0 001.1-7.379c-13.561-3.18-30.864.53-41.81 5.65-3.112 17.313 4.843 31.501 16.211 37.993.31-.124.616-.25.919-.38l.343-.15c6.564-2.885 11.487-7.317 15.176-13.072m4.656-9.605c.24-.66.468-1.332.69-2.012m.002 0c1.113-3.423 2.002-7.113 2.713-11.046m-8.04 22.645c1.838-2.873 3.367-6.075 4.639-9.578"/><path fill="#FFF" d="M51.862 31.066l.002.006c.004.005.004.003-.002-.006"/><path fill="#0039A6" d="M26.873 59.922c1.743 3.02 4.112 5.9 6.775 8.293.935.83 1.94 1.64 3.029 2.421 6.57-2.888 11.5-7.325 15.192-13.087-4.78-.028-9.574.23-14.306.746-3.612.394-7.187.94-10.69 1.627m-3.953-10.83c.103.648.267 1.3.402 1.93 10.622-2.297 22.056-3.442 33.208-3.087.24-.66.469-1.333.69-2.014-11.463-.461-23.42.639-34.3 3.171m-3.735-15.957c-3.114 17.33 4.85 31.532 16.23 38.032.31-.124.615-.252.918-.381C25.57 64.638 18.22 51.202 21.166 34.81c9.702-4.538 24.593-7.861 36.99-5.798-9.22-.947-23.768 1.461-33.434 5.249a83.07 83.07 0 00-1.804.692s-.418 1.758-.592 4.589l.678-.187a129.653 129.653 0 0136.935-4.492c.43-2.376.794-4.838 1.1-7.386-13.575-3.183-30.895.53-41.854 5.657"/><path fill="#C60C30" d="M33.736 36.926h-.001a128.44 128.44 0 00-11.409 2.617 39.43 39.43 0 00.594 9.55 125.593 125.593 0 0115.486-2.577h.002c6.21-.644 12.511-.849 18.814-.595 1.115-3.427 2.005-7.12 2.717-11.057a130.25 130.25 0 00-26.203 2.062"/><path fill="#BBC1DB" d="M47.017 56.381l-.03.047c-.181.295-.573.784-.982 1.235 1.95-.08 3.906-.116 5.869-.105 1.846-2.882 3.383-6.096 4.66-9.615-7.997-.254-15.895.235-23.655 1.359.005.007.002.006.007.014.283.458.553.849.73 1.11.373.558.083.946.135 1.217.05.251-.1 1.013.107 1.83-.225.299-.71.668-.956 1.218-.431.966-.514 1.77-.24 2.99a4.792 4.792 0 00-.032 1.245 124.76 124.76 0 018.815-.994l.015-.017c.762-.915.863-1.455 1.156-2.719.217-1.165.425-.929.953-1.574.386-.472.432-.916.302-1.679.022-.002.043-.002.065-.005 2.447-.22 3.163-.625 3.831-.761 1.404-.289 1.276.59 1.292.818-.027.389-.301 1.158-.82 2.118 0 0-.361.955-1.222 2.268"/><path fill="#9F0A2B" d="M58.25 41.822c-.13-1.021-.296-1.974-.636-2.733-.632-1.415-2.188-3.072-3.516-4.224a129.738 129.738 0 00-24.88 2.966 9.69 9.69 0 00-.237 1.08c.04.115.125.302.223.487-.043.517.187 1.75.374 2.322a.942.942 0 00-.066.645c.095.28.593.706.891.85 0 0 .1 2.268 1.913 3.3a6.36 6.36 0 00-.201.808 130.718 130.718 0 0125.11-1.402 73.217 73.217 0 001.147-3.917l-.122-.182"/><path fill="#06357A" d="M38.761 26.229a6.025 6.025 0 00-2.135-.71c-.964.326-1.926.895-2.55 1.266-.35.743-.985 2.502-1.003 2.832.202 0 .542-.013.953-.14-.18.17-.345.371-.547.656-.727.269-1.741.668-2.764 1.222-.276.228-.576.614-.691 1.029-.057.196-.032.404.121.523.098.082.252.157.397.194l.027.007c-.11.616.1 1.47.342 1.87-.08.12-.166.31-.256.54a11.229 11.229 0 00-.566 2.1c.04.115.123.302.223.488-.043.516.187 1.749.374 2.321a.938.938 0 00-.066.646c.093.28.593.706.89.849 0 0 .1 2.268 1.913 3.3-.16.526-.226.862-.245 1.198a1.5 1.5 0 00.033.089c.162.457.462.992.763 1.48.283.459.57.874.745 1.135.374.558.217 1.015.185 1.29-.033.285-.15.94.058 1.757-.225.299-.71.67-.956 1.219-.432.966-.514 1.77-.24 2.99-.246 1.59.277 3.133 1.556 3.605.7.258 1.257.28 1.537.182.75.09 1.375-.208 1.79-.495.623-.398 1.396-.528 2.207-1.537.317-.392.947-.605 1.708-1.522.762-.915.863-1.454 1.156-2.718.217-1.165.424-.928.953-1.575.386-.472.432-.915.3-1.678l.067-.005c2.447-.22 3.164-.625 3.831-.762 1.403-.288 1.276.59 1.292.818-.027.39-.302 1.16-.82 2.118 0 0-.361.956-1.222 2.269l-.03.047c-.404.65-1.834 2.266-2.217 2.282-1.487.062-2.611.703-3.315 2.177-.907.269-2.059 1.235-2.243 2.75-.001.012-.116.865.394 1.479.145.19.448.357.627.574.233.281.618.337.849.42.445.12.936.015 1.523-.207.726-.295 2.032.645 3.778.632 1.905-.016 3.434-.052 3.818.33 1.042 1.04 2.486-.03 2.486-.03.786-.586 1.025-1.51 1.105-1.912.352-1.774.09-1.86-.033-3.17-.125-1.31.438-2.399.664-2.866 1.12-2.332 3.57-4.046 4.793-8.056 1.16-3.804.739-7.595-1.054-9.772-.13-1.022-.206-1.202-.544-1.962-.81-1.813-3.136-4.022-4.557-5.06-.642-.925-1.63-1.86-2.37-2.345a1.522 1.522 0 01-.065-.233l-.258-.524c-.168-.26-.41-.486-.778-.794-.26-.197-.808-.537-1.224-.582.15-.214.263-.586.26-.83-1.056-1.163-2.811-1.751-3.952-2.776a25.015 25.015 0 00-3.927.317 5.374 5.374 0 00-1.32.941c-.435.033-1.291.196-1.77.319"/><path fill="#FFF" d="M51.87 31.026l.003.006-.003-.006m-12.517 8.096c.378.036 1.544.192 2.45.353-.299-.209-.7-.805-.888-1.092-.174.216-.31.42-.544.629-.119-.259-.5-.697-.914-.92-.082.25-.236.514-.364.735a4.725 4.725 0 01-1.143-.548.603.603 0 00-.214.107c.347.174.906.462 1.37.914l.247-.178zm.11-1.739c.286.181.724.54 1.007.912.042-.063.115-.135.152-.242-.2-.166-.675-.704-.855-.977-.366.056-1.072.183-1.648.354a2.962 2.962 0 00-.446.24c.208.18.696.468 1.316.613.243-.35.386-.686.475-.9zm13.418 26.805c-.297-.157-.665.111-.635.47.014.203-.053.56.09.678 0 0 .262.176.709-.362.205-.245.105-.644-.164-.786zm-.475-2.21c-.419-.267-.817-.358-1.07-.335l-.003-.155c-.023-.843-.755-2.551-2.621-2.535-.799.006-1.031.736-1.11 1.294-.11.797-.133 1.718-.102 1.95.035.27-.01.685.257.906.127.105.326.18.348.023.027-.303.081-.679.258-.876.177-.2.418-.363.676-.363.078 0 .158.01.238.029.334.08.641.328.794.635.154.306.166.712.033 1.022a3.008 3.008 0 01-.21.404c.002.043.012.07.034.076.31.045.802-.193.997-.499.23-.364.347-.804.391-1.314.3.355.19 1.206.14 1.49-.036.205-.1.599.011.835.092.198.304.254.404.194l-.004-.026a.889.889 0 01.141-.704c.14-.2.356-.331.589-.359a.776.776 0 01.359.041c.256.092.413.308.508.577.044.127.06.257.05.384.08.047.144-.039.193-.205.349-1.17-.595-2.037-1.301-2.489zm-3.159.495c-.508-.168-.807.387-.79.857.016.28-.187.847.198.99 0 0 .533.11 1.02-.812a.734.734 0 00-.428-1.035zM59.87 45.357c-.008-.772.006-1.004-.236-2.034-.542-2.315-2.2-4.65-3.924-6.439.982.48 1.658.982 2.414 2.097-.15-1.588-1.887-3.987-3.438-5.105.4.801.527 1.628.55 2.362.013.68-.11 1.519-.224 2.017-.263.992-.538 2.094-1.381 2.902-.638.48-1.329 1.126-1.945 1.524l-1.02.785c-.647.542-1.127.993-1.35 1.55.632-.539 1.908-1.748 3.237-2.081-.282.252-.671.68-1.513 1.34.332.086.59.307.831.696.413.669.516 1.637.369 2.576.695-.35 1.75-2.023 1.918-3.367.084-.672.167-1.108.167-1.108s.07.275.127 1.027c.113 1.504-.458 3.163-1.092 4.193-.327.531-.913.747-1.169 1.098-.26.36-.176.62-.252 1.216-.124.959-1.002 1.684-.514 1.65.327-.024 1.01-.003 1.304.302-.605-.186-2.069.251-2.8 1.388-.206.32-.675 1.135-.675 1.135s-.561 1.039-1.623 1.987c-.73.65-.587.697-.44.736a.908.908 0 01.067.019c.915-.444 1.598-.993 1.953-1.415.206-.245.335-.354.335-.354s-.064.17-.235.444c-.333.532-.598 1.02-1.47 1.711 2.474-.483 4.288 1.34 4.545 3.098.536.14 1.043.38 1.328.828.597-1.181.264-2.584.197-3.67-.057-.89.191-2.174.84-3.5a10.979 10.979 0 00-.294 2.014c.382-1.223 1.802-2.565 2.812-3.649 1.097-1.104 1.843-2.87 2.09-4.238.312-1.732.36-3.359-.616-6.098a5.711 5.711 0 011.127 2.363zM42.44 54.83c.153-.985 1.26-3.056 0-1.709-.726.777-1.414.993-2.246 1.556-1.166.786-.427 1.693-.626 2.287-.086.256-.023.123-.33.52-.537.694-1.423.848-1.01 1.102.425.256.49.006.86-.07.239-.05.542-.247.633-.505.153-.436.431-1.134 1.267-1.392.838-.257 1.299-.805 1.451-1.79zm-.572 8.21c-.257.164-.323.57-.098.798.49.497.737.3.737.3.133-.129.036-.479.034-.683-.002-.36-.39-.596-.673-.415zm3.167-1.226a.735.735 0 00-.754.83c.146 1.031.685 1.11.685 1.11.408-.004.411-.607.522-.864.176-.437.082-1.06-.453-1.076zm.367-3.404s-1.36.03-2.07 1.356c0 0-.07.151-.144.395-.042.008-.084.016-.123.025-1.405.352-2.083 1.568-2.103 2.32-.006.39.032.867.266 1.048l.003-.002a.937.937 0 01.01-.393.939.939 0 01.496-.632.788.788 0 01.343-.08c.236 0 .465.107.63.291a.882.882 0 01.184.33c.104-.028.154-.174.104-.37-.142-.552-.203-1.03.036-1.743-.053.637.002 1.498.65 2.033 0 0 .211.128.306.057a2.902 2.902 0 01-.122-.531 1.162 1.162 0 011.15-1.313h.037c.317.01.583.155.75.41.215.329.242.821.069 1.254-.022.05-.042.135-.062.218a.052.052 0 01-.003.009.908.908 0 00.685-.186s.938-.577.755-3.166c0 0-.189-1.606-1.847-1.33zm-2.64-8.443a.92.92 0 01.712-.191c-1.006-.796-2.61-.744-3.06-.357a1.84 1.84 0 00-.149-.055c-.318-.1-1.666-.316-2.485.392-.862.746-1.448 1.934-.344 2.788.75.58 1.468.97 2.293.267.056-.047-.245-.275-.476-.612-.247-.262-.393-.593-.388-.9a.902.902 0 01.417-.745 1.157 1.157 0 011.488.16c.065.049.127.108.185.18.767.929.558-.117.325-.614a1.789 1.789 0 00-.454-.606c.258.032.58.245.757.496.187.264.33.607.575.845.274.269.397.2.435.027a.884.884 0 01-.113-.295.806.806 0 01.282-.78zm-3.121 1.065c-.445.297-.192.874.19 1.15.23.16.552.668.9.453 0 0 .416-.351-.01-1.303a.735.735 0 00-1.08-.3zm3.59.01c.18.099.442.35.619.294 0 0 .29-.125.084-.792-.095-.306-.484-.44-.75-.291-.294.165-.268.618.047.79zm-7.057 6.739c.053 0 .105.006.157.015.03-.065-.084-.152-.333-.166-.645-.038-1.212-.497-1.471-1.24-.328.656-.117 2.013.389 2.575.322.36.794.498.853.421a.94.94 0 01-.454-.706.794.794 0 01.207-.614.884.884 0 01.652-.285zm14.974-9.82c.213-.065.4-.127.552-.186-.017-1.357-.531-2.192-1.57-2.887-1.048.915-1.774 1.523-2.616 1.981-.442.239-.946.434-1.604.599-.36.093-.69.163-1.01.212.697-.202 1.403-.669 1.927-1.174a4.13 4.13 0 00.533-.62 1.936 1.936 0 01-.793.486 2.651 2.651 0 01-.538.117c.117-.07.228-.144.33-.223a2.36 2.36 0 00.93-1.55c-.443.74-1.094 1.154-1.632 1.17l-.025.017c-.466.323-1.134.506-1.617.524-1.34.051-1.777.108-1.777.108.154.202.796 1.363.885 1.862.702.283 1.317 1.012 1.61 1.41 1.687-.114 3.473-.585 4.913-.99-.87-.132-1.62.226-2.706.08a9.548 9.548 0 001.977-.425c.656-.224.706-.85-.309-1.632 1.22.179 2.09.524 2.54 1.12zM32.33 34.966a4.115 4.115 0 012.344-.426l.093.166c-.42.307-1.14 1.292-1.238 1.536-.202.087-.867.21-1.029.186-.1-.356-.233-1.107-.17-1.462zm12.58-5.77c1.594.395 2.617.788 3.241 1.158.6.874 1.099 1.769 1.373 2.663-1.206-1.586-2.526-2.897-4.614-3.821zm-3.71-.138l-.085.022.343.175c-1.978.109-3.465 1.036-3.465 1.036.656-.594 1.303-.992 1.922-1.23 0 0 1.516-.393 2.987-.24-.716.036-1.08.086-1.701.237zm-6.913 10.318s-.145.067-.35.188c-.62.308-1.018.674-1.27 1.218l-.044.1s.83 5.277 4.512 3.616c.858-.21 2.395-.07 3.327-.669-.134.39-.359.414-.606.61.6.127.797.35 1.249.032.523-.368.423-.222.958.051.535.272 1.497.784 2.315.717.417-.083.739-.322.978-.553a2.322 2.322 0 01-.856-.393c-.456-.348-.364-.854-.693-1.536l-.314-.355c-.733.574-1.338.833-2.289 1.106.361-.476.678-.696 1.145-.994.265-.171.63-.507.942-.81l-.286-.984a4.347 4.347 0 01-.492-.44c-1.103-.396-2.114-.573-3.205-.75l-.435.43c-.364-.49-1.096-1.12-1.904-1.546-.309-.102-.691-.24-1.039-.292-.05-.39-.296-1.149-.554-1.62-.139.275-.46.869-.62 1.552a7.793 7.793 0 00-1.724.288 2.098 2.098 0 00-.453.15c-.054-.16-.364-.59-.654-.933a9.322 9.322 0 00-.246-.319l1.175.506c.5-.163.945-.258 1.262-.312.164-.024.33-.046.49-.065.234-.53.851-1.4.851-1.4.525.397.901.965 1.195 1.793.34-.375.82-.73 1.284-.925.829-.363 2.387-.707 3.062-.495.187 1.015.996 2.045 1.449 2.975.253.4.482 1.141.482 1.141l-.215-2.847 1.022 3.57s1.427 2.4 2.515 2.65c.324-.091.623-.198.825-.306.42-.258 1.018-.908 1.371-1.575.047-.12.113-.423.162-.754a5.35 5.35 0 00.066-.73c.214.476.323.906.43 1.572-.1.571-.354 1.267-.658 1.917.575-.288 1.114-1.766 1.365-2.253.281-.517.828-1.543 1.095-2.61a1.547 1.547 0 00-.062-.452c-.249-.85-.656-1.978-.93-2.747.286.404.523.76.738 1.128.296.51.547 1.037.815 1.744.013.922-.007 1.937-.193 2.937.028-.026 1.448-1.161 2.488-2.858.586-.957 1.284-2.348.811-4.355-.224-.943-1.635-2.485-2.42-3.005a3.094 3.094 0 00-.121-.075l-.16-.378c-.041-.054-.646-.93-1.252-1.358-.3-.212-1.187-.666-1.725-.757l-.504.026a16.874 16.874 0 00-1.758.109c-1.667-.944-3.058-1.447-4.338-1.744-.18.096-.325.16-.467.225.083-.345.213-.635.483-.867 0 0 1.844.661 2.964 1.267.418.035 2.1.04 2.88-.151.111-.096.156-.29.164-.452-.188-.308-.894-.617-1.982-1.238-.581-.348-1.146-.8-1.146-.8s-.428-.04-.849-.028c-.318.01-2.111.155-2.451.284-.07.027-.311.122-.342.13-.385.134-.769.385-1.213.788a3.324 3.324 0 01-.69.311c-.86.284-2.133.61-2.507.765-.578.24-1.593.84-1.593.84l-1.206 1.525c-.25.316-.472.62-.6.856-.823.268-1.945.766-2.475 1.122-.131.093-.317.352-.233.453.091.09.209.162.314.192.212.025.386.031.52.02.043-.003.082-.007.118-.013.115.185.271.453.564.539 0 0 .263.012.565-.006.112-.005.228-.015.343-.03.262-.135.665-.558.778-.698.158-.197.363-.52.65-.943.329-.412.988-.958 1.612-1.411.254-.147.963-.536 1.898-.873-.504.226-2.013 1.52-2.476 2.124-.265.378-.3.71-.352.978.012.08.142.31.413.54.424-.016 1.496-.353 1.906-.417.79-.274 1.347-1.012 1.726-1.516.497-.014 2.246-.051 3.068-.244.292.131.99.656 1.573 1.309-.358-.246-.91-.475-1.4-.59-.195.03-.816.077-1.065.141.051.669-.215 1.06-.553 1.449.354-.032.968.02 1.693.006 1.177.259 2.088 1.324 2.088 1.324-.892-.803-2.378-.853-2.378-.853-1.053-.101-2.72.04-3.875.198.267.262.705 1.013 1.043 1.65-.786-.85-1.299-1.078-2.161-1.455-.85-.296-1.877-.325-2.315-.316a8.5 8.5 0 00-.945.098c-2.018.58-3.232 1.811-3.545 2.911.02.278.219.54.438.735.013.44.176 1.354.396 1.859 0 0-.053.045-.119.12-.08.074-.16.149-.2.222-.081.126-.087.361-.038.527a.562.562 0 00.104.205s.218.264.686.103c0 0 .622-.352 1.262-.603.243-.083.584-.19.918-.243zm-3.058-6.159c-.1.448.136.942.398 1.146.233-.172.588-.374.866-.512a1.07 1.07 0 01-.236-.19c-.034.183-.144.325-.291.35-.206.033-.409-.176-.453-.468a.694.694 0 01.02-.298 1.981 1.981 0 01-.304-.028zm8.482-.28c-.225.013-.43-.14-.54-.372-.263.234-.539.452-.76.572.36-.025 1.158-.032 1.548-.067.787-.093 1.007-.536 1.016-.708.009-.172.02-.464-.197-.77-.292.037-.4.034-.723.062a.508.508 0 01-.02.03c.11.123.185.299.199.496.027.398-.207.738-.523.757zm-1.533 22.375c.484-1.387.21-1.642-.882-2.43-.969-.698-1.942-.14-2.503.925-.428.811-.329 1.605.035 2.324.195.385.65.806 1.192.893.52.082 1.296.087.6-.365a2.95 2.95 0 01-.424-.223 1.157 1.157 0 01-.243-1.753.9.9 0 01.685-.318c.433 0 .814.299 1.036.63.043.05.083.106.122.165.275.396.382.152.382.152zm-3.595-27.504c-.424.443-.578.688-.739 1.09a5.467 5.467 0 001.385-.691c-.193-.158-.427-.337-.646-.399zM36.5 59.255c.668-.21.605-.52.605-.52-.055-.176-.41-.25-.592-.34-.321-.163-.709.073-.678.409.03.303.361.547.665.45zm1.333-2.866c.26-.316-.2-.705-.327-.954-.222-.416-.758-.745-1.115-.345a.736.736 0 00.151 1.11c.885.553 1.29.189 1.29.189zm1.955-9.186c.175.015 1.104.11 1.655.255-.22-.415-.528-.955-1.958-1.32-.32-.063-.506-.01-.788-.082-1.052-.27-1.734-.096-1.734-.096-1.258.254-2.217-.185-2.961-.452.055.282.115.631.253.912.766.851 1.228 1.59 1.482 1.76.501.348.804.99.853 1.207-.338-.36-.62-.505-1.077-.715.029.598.06.929.17 1.335.076.379-.24 1.107-.296 1.696.309-.266.564-.32.626-.63.165-1.042.657-1.744 1.956-2.24.833-.32 1.766-.318 2.246-.155.178.109.85-.221 1.48-.068 0 0-.415-.566-1.49-.907-.612-.195-1.772-.36-2.551-.34.593-.18 1.564-.206 2.134-.16zm-4.1-19.328c.316-.21 1.485-.916 2.265-1.248-.272-.159-1.25-.36-1.861-.398-.39.11-1.06.42-1.52.725.316.18.967.689 1.117.921z"/><path fill="#0039A6" d="M37.65 12.655c-.413-.121-.786-.095-.786-.379 0-.21.197-.304.467-.304.311 0 .637.122.907.277l.176-1.116a2.491 2.491 0 00-1.252-.345c-.826 0-1.766.412-1.766 1.542 0 .82.487 1.26.982 1.428.439.15.892.102.892.386 0 .19-.19.325-.487.332-.373.006-.772-.183-1.11-.413l-.318 1.137c.42.25.947.467 1.536.467.927 0 1.848-.528 1.848-1.618 0-.873-.59-1.244-1.09-1.394zm3.636 9.464a1.095 1.095 0 01-.366.02v-3.728c.104-.01.209-.02.324-.01.566.063 1.205.513 1.205 1.854 0 1.256-.596 1.76-1.163 1.864zm-.45-5.551c-.828-.01-1.55.01-2.147.032v7.33c.482.032.88.053 1.361.053 3.184 0 4.63-1.267 4.63-3.697 0-2.492-1.393-3.686-3.844-3.718zM35.8 16.6h-2.231v7.33h4.577v-1.832H35.8V16.6zm-5.122 0h-2.23v7.33h4.576v-1.832h-2.346V16.6zm25.638 4.713h1.121v.754c-.188.125-.46.25-.827.25-.88 0-1.634-.743-1.634-2.01 0-1.225.733-2.084 1.686-2.105.513-.01.922.22 1.204.524l.66-1.75c-.513-.293-1.215-.565-2.032-.565-2.042 0-3.75 1.655-3.75 3.927 0 2.263 1.625 3.813 3.782 3.813 1.215 0 2.053-.482 2.68-.933v-3.56l-2.89-.011v1.666zm7.07-1.928c-.64-.188-1.216-.146-1.216-.586 0-.324.304-.471.723-.471.482 0 .985.188 1.404.429l.272-1.728a3.852 3.852 0 00-1.937-.534c-1.278 0-2.734.639-2.734 2.387 0 1.268.754 1.949 1.518 2.21.682.23 1.383.158 1.383.597 0 .293-.293.503-.754.514-.576.01-1.194-.283-1.717-.64l-.493 1.76c.65.388 1.466.723 2.378.723 1.434 0 2.86-.817 2.86-2.503 0-1.35-.912-1.927-1.687-2.158zm-8.412-3.793v-4.737h-1.441v2.47l-1.32-2.47H50.88v4.737h1.441V13.19l1.327 2.402h1.326zm-24.754 0l1.265-4.737h-1.367l-.656 2.91-.758-2.91H27.64l-.75 2.903-.664-2.903h-1.4l1.36 4.737h1.278l.711-2.883.724 2.883h1.32zm18.493 6.757c-.775 0-1.289-.827-1.289-2.02 0-1.227.514-2.022 1.3-2.022.785 0 1.287.806 1.287 2.021 0 1.183-.523 2.021-1.298 2.021zm0-5.896c-1.928 0-3.53 1.508-3.53 3.885 0 2.368 1.592 3.875 3.551 3.875 2.01 0 3.508-1.591 3.508-3.895 0-2.399-1.644-3.865-3.53-3.865zm-2.36-2.045h-1.827v-.67h1.293V12.69h-1.293v-.65h1.712v-1.184h-3.153v4.737h3.268v-1.184zm-6.26 1.184h1.435v-3.546h1.238v-1.19H38.86v1.19h1.231v3.546zm-5.11-1.184h-1.826v-.67h1.293V12.69h-1.293v-.65h1.712v-1.184h-3.154v4.737h3.269v-1.184zm13.278-2.402a.752.752 0 01.244.013c.19.04.413.19.413.603 0 .325-.163.548-.386.615a.74.74 0 01-.27.02v-1.251zm0 2.436c.136.02.257.013.352.007l.338 1.143h1.544l-.61-1.705c.298-.298.48-.724.48-1.265 0-1.077-.737-1.76-2.043-1.794-.399-.013-1.076 0-1.502.027v4.737h1.441v-1.15zm-22.84 6.724c0 .618-.357.984-.838.984-.482 0-.838-.356-.838-.973V16.6h-2.231v4.503c0 2.2 1.666 3.048 3.11 3.048 1.603 0 3.027-1.037 3.027-3.11V16.6h-2.23v4.566zm-7.541 1.037c-.168.01-.325 0-.419-.01v-1.31c.094-.02.23-.031.377-.02.398.03.702.25.702.68 0 .461-.304.628-.66.66zm-.419-3.844c.105-.021.251-.031.387-.01.252.031.608.126.608.555 0 .356-.272.502-.628.565-.095.01-.21.021-.367-.01v-1.1zm2.147 1.634c.639-.283.974-.838.974-1.518 0-.839-.513-1.928-3.08-1.928-.575 0-1.287.01-2.25.053v7.33c.722.043 1.308.074 2.167.074 2.189 0 3.498-.733 3.498-2.22 0-1.016-.618-1.602-1.31-1.791z"/><path d="M0 0h80v80H0z"/></g></svg>