<svg xmlns="http://www.w3.org/2000/svg" xmlns:xlink="http://www.w3.org/1999/xlink" width="80" height="80"><defs><path id="a" d="M.138.315a44.602 44.602 0 002.604 7.187H38.88c1.156-2.504 2-4.916 2.608-7.187H.138z"/><path id="c" d="M.136.305a44.602 44.602 0 002.61 7.206h36.13A44.712 44.712 0 0041.49.305H.136z"/></defs><g fill="none" fill-rule="evenodd"><path fill="#000" d="M63.903 45.649l-.477-7.317s-3.274 11.39-12.028 19.99c-.01-.003 3.197 5.209 3.206 5.2.427-.408 9.167-6.92 14.504-22.235.025-.07-5.205 4.362-5.205 4.362"/><path fill="#000" d="M63.377 38.739l.46 7.063.114-.097c1.224-1.036 4.185-3.54 4.988-4.193-4.498 12.725-11.414 19.477-14.195 21.792l-.123.106c-.252-.393-2.936-4.75-3.13-5.078 7.773-7.66 11.244-17.593 11.886-19.593M51.346 58.268c-.056.105 3.17 5.281 3.212 5.315l.048.037.235-.2c2.81-2.34 9.831-9.176 14.338-22.11l.02-.052-.048-.034c-.015-.01-.036-.01-.113.039-.25.161-1.181.937-5.07 4.232l-.468-7.168-.146-.016c-.033.114-3.37 11.47-12.008 19.957"/><path fill="#FFF" d="M57.132 58.36l2.377 4.382-4.878.547-3.082-4.891z"/><path fill="#000" d="M57.097 58.419l2.319 4.274c-.167.02-4.79.536-4.79.536h-.001c0-.056-2.677-4.308-2.97-4.774.202 0 5.374-.036 5.442-.036zm.034-.118l-5.688.039 3.138 4.98c.056.027 4.934-.52 4.934-.52l.087-.01-2.435-4.49h-.036z"/><path fill="#E00034" d="M15.849 45.649l.477-7.317s3.418 11.402 12.171 20.003c-.024-.004-3.612 4.309-3.612 4.9 0 .59-8.905-6.633-14.242-21.948-.024-.07 5.206 4.362 5.206 4.362"/><path fill="#000" d="M15.924 45.653l.451-6.926c.655 1.97 4.237 11.936 12.021 19.611-.285.33-3.587 4.284-3.587 4.897-.645-.022-8.963-7.454-14.003-21.728.785.638 3.764 3.157 4.994 4.199l.113.096.01-.149zm.327-7.326l-.468 7.168c-3.89-3.297-4.82-4.071-5.068-4.233h-.001c-.077-.049-.098-.048-.113-.038l-.048.032.019.055c5.181 14.867 13.706 22.13 14.299 22.03l.062-.01.027-.096c0-.513 3.374-4.64 3.586-4.843l.056-.054-.052-.057c-8.64-8.488-12.118-19.857-12.152-19.97l-.147.016z"/><path fill="#000" d="M22.646 58.424h5.82v-.15h-5.82z"/><path fill="#FFF" d="M22.838 58.402l-2.643 4.34 4.438.171 3.689-4.495z"/><path fill="#FFF" d="M39.882 64.145c0-.06-8.314.732-17.199-5.74l-3.294 4.596s6.97 7.2 20.493 7.2 20.494-7.2 20.494-7.2l-3.294-4.596c-8.885 6.472-17.2 5.68-17.2 5.74"/><path fill="#000" d="M22.702 58.508c7.32 5.305 14.323 5.763 17 5.71h.36c2.676.053 9.68-.405 17-5.71l3.215 4.485c-.466.46-7.455 7.133-20.395 7.133s-19.928-6.672-20.395-7.133l3.215-4.485zm34.336-.163c-7.307 5.322-14.304 5.776-16.973 5.724l-.183.017a19.876 19.876 0 01-.183-.017c-2.669.052-9.665-.402-16.972-5.724l-.06-.045-3.376 4.709.044.045c.07.072 7.147 7.222 20.547 7.222s20.478-7.15 20.547-7.222l.044-.045L57.1 58.3l-.061.045z"/><path fill="#000" d="M48.38 67.46c.774-.238.688-1.013.498-1.719-.194-.713-.538-1.4-1.431-1.128l-.787.241.876 2.862.844-.257zm-7.208-.518c.036.83.168 1.628 1.043 1.599.873-.031.953-.837.928-1.667-.02-.687-.156-1.489-1.03-1.458-.89.03-.966.84-.941 1.526m-3.027 1.165c.213-.256.266-.985.275-1.193.023-.687-.057-1.495-.946-1.527-.875-.03-1.006.772-1.03 1.458-.02.83.055 1.635.928 1.666.22.008.474-.071.606-.194l.326.29.174-.201-.333-.3z"/><path fill="#FFF" d="M18.575 13.399s-7.017 24.658 21.307 46.487C68.207 38.057 61.191 13.4 61.191 13.4H18.575z"/><path fill="#FFF" d="M61.132 13.474c.079.298.714 2.848.714 6.898 0 8.88-3.088 24.847-21.964 39.417C21.008 45.219 17.92 29.254 17.92 20.373c0-4.05.635-6.6.714-6.899h42.499zm.058-.15H18.517l-.015.054c-.07.247-6.706 24.957 21.334 46.567l.046.036.046-.036c28.04-21.61 21.405-46.32 21.334-46.567l-.014-.054h-.058z"/><path fill="#000" d="M39.882 59.79C22.686 46.515 18.454 32.24 17.936 22.596l-.15.008c.52 9.683 4.769 24.022 22.05 37.34l.046.036.046-.035c17.264-13.305 21.53-27.65 22.068-37.34l-.15-.01c-.537 9.652-4.786 23.934-21.964 37.193"/><path fill="#000" d="M36.165 22.601h7.453v34.224l-3.736 3.061-3.717-3.053z"/><path fill="#000" d="M43.618 22.61l-.01 34.215a2847.94 2847.94 0 00-3.732 3.053c0-.01-3.705-3.052-3.705-3.052l.004-34.216h7.443zm-7.463-.019v34.242c.004.007 3.721 3.06 3.721 3.06.012 0 3.748-3.06 3.748-3.06l.004-34.232-7.463-.01h-.01z"/><path fill="#E00034" d="M61.904 22.6c.302-5.628-.714-9.201-.714-9.201H18.575s-1.017 3.573-.714 9.202h44.043z"/><path fill="#000" d="M61.132 13.474c.077.284.753 2.92.753 7.067 0 .627-.018 1.293-.054 1.985H17.934a39.048 39.048 0 01-.054-1.988c0-4.145.677-6.78.752-7.064h42.5zm-42.557-.15h-.058l-.015.054c-.01.036-1.016 3.65-.716 9.227l.004.071h44.186l.003-.071c.3-5.578-.706-9.19-.717-9.227l-.014-.054H18.575zm5.805 49.528c-.37.744-.642 1.506.137 1.902.779.397 1.24-.268 1.619-1.006.316-.61.587-1.378-.193-1.775-.793-.404-1.251.267-1.563.879"/><path fill="#FFF" d="M28.525 16.276h.823v-1.158h-2.931v1.158h.788v2.433h1.32v-2.433zm12.416 3.137c-.502 0-.91.4-.91.9a.92.92 0 00.91.921c.5 0 .91-.419.91-.92 0-.501-.41-.9-.91-.9zM25.768 15.44c-.443-.417-1.34-.686-1.986-.686-1.225 0-2.122.825-2.122 1.845 0 .955.685 1.355 1.62 1.681.57.189 1.263.368 1.263 1.005 0 .473-.356.89-.935.89-.607 0-1.12-.425-1.311-.899l-.916.76c.5.71 1.234 1.2 2.236 1.2 1.486 0 2.393-.874 2.393-2.107 0-2.065-2.884-1.633-2.884-2.669 0-.4.434-.693.887-.693.473 0 .82.196 1.09.506l.665-.833zm9.665 2.291l-.02-2.556h-1.368v6.06h1.369V18.51l2.262 2.724h1.76l-2.811-3.263 2.661-2.797h-1.685l-2.168 2.556zm-7.56 1.683c-.5 0-.91.4-.91.9 0 .502.41.921.91.921a.92.92 0 00.911-.92c0-.501-.409-.9-.91-.9zm20.791 0c-.501 0-.91.4-.91.9a.92.92 0 00.91.921c.5 0 .91-.419.91-.92 0-.501-.41-.9-.91-.9zm10.46 0c-.501 0-.912.4-.912.9 0 .502.41.921.911.921a.92.92 0 00.91-.92c0-.501-.409-.9-.91-.9zm-1.887-4.08a3.323 3.323 0 00-1.467-.347c-1.929 0-3.246 1.487-3.246 3.171 0 1.637 1.37 3.077 3.22 3.077.534 0 1.013-.149 1.493-.353v-1.379c-.357.371-.907.63-1.458.63-1.195 0-1.928-.999-1.928-1.999 0-1.022.707-2.045 1.938-2.045.549 0 1.09.236 1.448.63v-1.385zm-9.259.835v-1.036h-3.534v6.102h1.389v-2.686h2.014V17.51h-2.014v-1.343h2.145z"/><path fill="#000" d="M22.534 63.479l.769-1.185.838.543.163-.251-.837-.543.534-.825.901.586.163-.251-1.178-.766-1.631 2.512z"/><path fill="#FFF" d="M25.827 63.599c-.396.77-.684 1.14-1.174.89-.49-.251-.361-.7.03-1.473.298-.596.655-1.015 1.11-.783.47.24.34.774.034 1.366"/><path fill="#000" d="M26.697 64.353l.537.216c.362.148.378.429.266.707-.076.185-.185.541-.19.746l.36.145.025-.063c-.075-.03-.048-.161-.038-.217.055-.22.118-.43.191-.643.105-.387.062-.538-.283-.716l.004-.008c.339.086.633-.067.776-.388.277-.633-.032-.934-.613-1.17l-.714-.288-1.122 2.776.307.124.494-1.22z"/><path fill="#FFF" d="M27.213 63.076l.433.175c.207.084.576.246.39.727-.187.488-.596.348-.742.293l-.485-.195.404-1z"/><path fill="#000" d="M28.821 63.726l.718.289-1.009 2.5.306.123 1.011-2.498.717.289.113-.276-1.743-.704zm1.474 3.403l.926-2.848-.316-.101-.925 2.846zm.815-.469c-.112.523.182.85.713.963.531.113.932-.067 1.043-.59l.473-2.22-.325-.07-.447 2.105c-.045.23-.163.594-.682.484-.52-.111-.48-.49-.427-.72l.448-2.105-.325-.069-.471 2.222zm4.245-.614c.148-.545-.12-.892-.655-1.005-.477-.102-.884.143-.987.626-.061.29-.041.54.207.739.138.114.378.252.525.348.273.176.452.218.358.664-.074.343-.34.462-.668.393-.488-.104-.513-.395-.404-.825l-.324-.068c-.03.155-.083.39-.051.547.086.419.412.574.701.635.562.12.978-.13 1.098-.685.081-.387.02-.604-.49-.929l-.427-.274c-.173-.11-.235-.254-.193-.457.049-.226.162-.513.635-.412.325.069.44.334.352.634l.323.069z"/><path fill="#FFF" d="M37.738 68.113a.584.584 0 01-.363.099c-.511-.002-.62-.557-.593-1.223.035-.866.139-1.321.69-1.302.55.018.622.48.6 1.347-.008.319-.095.739-.167.853l-.271-.233-.184.213.288.246z"/><path fill="#000" d="M38.92 67.79c-.018.534.328.805.87.825.543.019.908-.228.927-.764l.078-2.27-.33-.01-.076 2.15c-.004.235-.057.612-.588.594-.531-.018-.558-.4-.545-.634l.075-2.15-.33-.011-.08 2.27z"/><path fill="#FFF" d="M42.8 66.894c.027.866-.046 1.327-.596 1.346-.55.02-.654-.436-.689-1.302-.027-.665.081-1.205.593-1.222.526-.02.673.51.692 1.178"/><path fill="#000" d="M45.01 68.154l-.172-1.402.99-.122-.036-.297-.991.121-.119-.974 1.066-.131-.037-.297-1.395.172.365 2.971zm1.821-.347l-.623-2.929-.323.069.622 2.929z"/><path fill="#FFF" d="M47.065 65.042l.507-.154c.512-.157.736.25.96.896.291.846.207 1.252-.26 1.394l-.507.156-.7-2.292z"/><path fill="#000" d="M51.264 66.594l-.088-.287-1.122.343-.324-1.057 1.047-.32-.088-.287-1.046.32-.29-.946 1.115-.341-.087-.286-1.432.437.875 2.864zm1.908-.797l-.113-.277-1.132.458-1.01-2.499-.307.123 1.122 2.777zm.748-.331l-1.359-2.668-.295.151 1.359 2.667zm.3-.956c.244.477.678.547 1.162.3.484-.246.683-.639.44-1.115L54.79 61.67l-.295.15.977 1.917c.11.208.248.564-.225.805-.474.241-.682-.078-.785-.29l-.978-1.917-.294.15 1.03 2.025zm2.65-3.222c-.27-.495-.705-.557-1.169-.268-.412.258-.536.718-.274 1.137.157.25.345.416.66.387.182-.013.449-.082.621-.114.32-.062.478-.157.719.229.186.298.076.568-.208.746-.423.265-.642.072-.863-.312l-.281.175c.088.134.212.339.343.43.354.241.696.126.947-.03.488-.305.613-.775.312-1.255-.208-.335-.402-.45-.996-.328l-.498.099c-.2.041-.346-.02-.455-.195-.124-.197-.24-.482.17-.738.28-.175.547-.064.692.212l.28-.175zm-33.743-.894l.042.127.91-.303-.043-.127zm32.534-.176l.909.303.042-.127-.909-.303z"/><g transform="translate(19.073 30.728)"><mask id="b" fill="#fff"><use xlink:href="#a"/></mask><path fill="#000" mask="url(#b)" d="M42.786.315l-2.281 7.187H.913L-1.663.315z"/><mask id="d" fill="#fff"><use xlink:href="#c"/></mask><path fill="#000" d="M.913 7.492C.923 7.5-1.655.312-1.655.312l44.428.012-2.277 7.175L.913 7.492zM42.786.305h-44.45c-.009.013 2.567 7.2 2.567 7.2l39.602.006c.01-.007 2.29-7.193 2.29-7.193L42.8.305h-.013z" mask="url(#d)"/></g><path d="M0 0h80v80H0z"/></g></svg>