<svg width="80" height="80" viewBox="-25 -25 250 250" xmlns="http://www.w3.org/2000/svg"><g fill="none"><path d="M61.011 88.26h-35.7c.795 2.023 1.835 3.99 3.097 5.898h34.643a39.14 39.14 0 0 1-2.031-5.898h-.009ZM64.18 96.525H30.103c1.41 1.82 3.031 3.564 4.834 5.243h32.488a39.884 39.884 0 0 1-3.243-5.243ZM69.588 104.472H38.09a64.672 64.672 0 0 0 6.643 4.587h29.565a40.257 40.257 0 0 1-4.71-4.587ZM132.566 101.768h32.489c1.802-1.679 3.424-3.424 4.833-5.243H135.81a39.789 39.789 0 0 1-3.244 5.243ZM113.242 116.03h27.14c3.268-1.179 6.381-2.49 9.297-3.932h-28.22a40.085 40.085 0 0 1-8.217 3.932ZM136.941 94.158h34.644c1.253-1.909 2.293-3.875 3.096-5.898h-35.7a40.059 40.059 0 0 1-2.031 5.898h-.009ZM176.557 79.675c.024-.434.041-.877.041-1.319 0-.991-.066-1.974-.172-2.957H59.872c1.524-20.652 18.907-36.937 40.124-36.937 18.776 0 34.545 12.755 38.985 29.998h35.7c-7.774-19.717-38.256-34.43-74.677-34.43-40.59 0-73.8 18.268-76.43 41.369-.04.393-.082.794-.106 1.196l-.025.393c0 .14-.016.287-.016.426-.008.311-.025.63-.025.95 0 .991.066 1.974.172 2.957h116.537a40.232 40.232 0 0 1-.663 4.916h35.954a26.69 26.69 0 0 0 1.138-6.087l.025-.401v-.058l-.008-.016ZM125.686 109.059h29.564a63.694 63.694 0 0 0 6.643-4.587h-31.497a40.34 40.34 0 0 1-4.71 4.587ZM78.533 112.098H50.312a89.578 89.578 0 0 0 9.297 3.932h27.14a40.075 40.075 0 0 1-8.216-3.932ZM99.996 122.69c10.24 0 20.013-1.163 28.942-3.276H71.055c8.929 2.113 18.702 3.276 28.941 3.276ZM37.721 166.295c-16.277 0-18.702-1.908-18.783-9.428h9.256v.221c0 2.072 1.442 3.129 9.314 3.129 7.373 0 8.725-.999 8.725-2.965v-.213c0-1.606-.959-2.212-11.698-2.728-13.304-.664-15.425-2.769-15.425-9.167s2.72-9.167 17.563-9.167c16.646 0 17.768 3.162 17.809 9.216h-9.257v-.139c0-2.195-2.457-3.088-8.47-3.088-6.013 0-8.38.786-8.38 2.711 0 1.589.86 1.917 11.607 2.474 13.238.696 15.475 3.482 15.475 9.462 0 6.684-2.556 9.674-17.727 9.674l-.009.008ZM78.148 166.295c-16.154 0-18.743-3.178-18.743-13.385v-16.335h9.257v15.827c0 5.276 1.908 5.98 9.478 5.98 7.569 0 9.478-.704 9.478-5.98v-15.827h9.257v16.335c0 10.207-2.59 13.385-18.743 13.385h.016ZM124.458 165.706l-12.648-21.258h-.745v21.258h-8.864v-29.131h15.581l12.607 21.266h.795v-21.266h8.814v29.131h-15.54ZM163.327 166.295c-16.278 0-18.702-1.908-18.784-9.428h9.257v.221c0 2.072 1.441 3.129 9.314 3.129 7.372 0 8.724-.999 8.724-2.965v-.213c0-1.606-.959-2.212-11.698-2.728-13.304-.664-15.425-2.769-15.425-9.167s2.719-9.167 17.563-9.167c16.646 0 17.768 3.162 17.809 9.216h-9.257v-.139c0-2.195-2.457-3.088-8.47-3.088-6.013 0-8.38.786-8.38 2.711 0 1.589.86 1.917 11.608 2.474 13.238.696 15.474 3.482 15.474 9.462 0 6.684-2.556 9.674-17.727 9.674l-.008.008Z" fill="#FE0000"></path></g></svg>